<svg width="98" height="92" viewBox="0 0 98 92" fill="none" xmlns="http://www.w3.org/2000/svg">
<path d="M82.1906 0.460938H15.0941C6.80984 0.460938 0.0941162 7.17667 0.0941162 15.4609V57.9388C0.0941162 66.2231 6.80984 72.9388 15.0941 72.9388H82.1906C90.4749 72.9388 97.1906 66.2231 97.1906 57.9388V15.4609C97.1906 7.17667 90.4749 0.460938 82.1906 0.460938Z" fill="#FEFAE0"/>
<path d="M48.6421 91.9421L57.4935 71.392H39.7908L48.6421 91.9421Z" fill="#FEFAE0"/>
<path d="M49 14C45.6377 14 42.3509 15.3196 39.5553 17.7919C36.7597 20.2643 34.5807 23.7783 33.2941 27.8896C32.0074 32.001 31.6707 36.525 32.3267 40.8895C32.9826 45.2541 34.6017 49.2632 36.9792 52.4099C39.3567 55.5566 42.3858 57.6995 45.6835 58.5677C48.9811 59.4358 52.3993 58.9902 55.5056 57.2873C58.612 55.5843 61.267 52.7004 63.135 49.0003C65.003 45.3002 66 40.9501 66 36.5C65.995 30.5346 64.2024 24.8155 61.0153 20.5974C57.8283 16.3792 53.5072 14.0066 49 14ZM49 56.6316C45.9916 56.6316 43.0508 55.4509 40.5495 53.2388C38.0481 51.0267 36.0986 47.8826 34.9473 44.204C33.7961 40.5254 33.4948 36.4777 34.0817 32.5725C34.6686 28.6674 36.1173 25.0803 38.2445 22.2648C40.3718 19.4494 43.082 17.532 46.0326 16.7552C48.9831 15.9785 52.0415 16.3771 54.8208 17.9008C57.6002 19.4246 59.9757 22.0049 61.6471 25.3155C63.3184 28.6261 64.2105 32.5183 64.2105 36.5C64.206 41.8374 62.6021 46.9545 59.7505 50.7286C56.8989 54.5027 53.0327 56.6256 49 56.6316Z" fill="#96A958"/>
<path d="M31.9 23.2V11.2H30.1V22H29.2V11.2H27.4V22H26.5V11.2H24.7V22H23.8V11.2H22V29.2C22.0007 29.9443 22.174 30.6702 22.4963 31.2779C22.8186 31.8857 23.2739 32.3457 23.8 32.5948V60.4C23.8 61.3548 24.0845 62.2705 24.5908 62.9456C25.0972 63.6207 25.7839 64 26.5 64H27.4C28.1161 64 28.8028 63.6207 29.3092 62.9456C29.8155 62.2705 30.1 61.3548 30.1 60.4V32.5948C30.6261 32.3457 31.0814 31.8857 31.4037 31.2779C31.726 30.6702 31.8993 29.9443 31.9 29.2V23.2ZM30.1 29.2C30.1 29.5183 30.0052 29.8235 29.8364 30.0485C29.6676 30.2736 29.4387 30.4 29.2 30.4C28.9613 30.4 28.7324 30.5264 28.5636 30.7515C28.3948 30.9765 28.3 31.2817 28.3 31.6V60.4C28.3 60.7183 28.2052 61.0235 28.0364 61.2485C27.8676 61.4736 27.6387 61.6 27.4 61.6H26.5C26.2613 61.6 26.0324 61.4736 25.8636 61.2485C25.6948 61.0235 25.6 60.7183 25.6 60.4V31.6C25.6 31.2817 25.5052 30.9765 25.3364 30.7515C25.1676 30.5264 24.9387 30.4 24.7 30.4C24.4613 30.4 24.2324 30.2736 24.0636 30.0485C23.8948 29.8235 23.8 29.5183 23.8 29.2V24.4H30.1V29.2ZM75.1 10C72.9525 10.0032 70.8936 11.1421 69.3751 13.1668C67.8565 15.1915 67.0024 17.9366 67 20.8V36.4C67 37.3548 67.2845 38.2705 67.7908 38.9456C68.2972 39.6207 68.9839 40 69.7 40V62.8C69.7 63.1183 69.7948 63.4235 69.9636 63.6485C70.1324 63.8736 70.3613 64 70.6 64H75.1C75.3387 64 75.5676 63.8736 75.7364 63.6485C75.9052 63.4235 76 63.1183 76 62.8V11.2C76 10.8817 75.9052 10.5765 75.7364 10.3515C75.5676 10.1264 75.3387 10 75.1 10ZM74.2 61.6H71.5V38.8C71.5 38.4817 71.4052 38.1765 71.2364 37.9515C71.0676 37.7264 70.8387 37.6 70.6 37.6H69.7C69.4613 37.6 69.2324 37.4736 69.0636 37.2485C68.8948 37.0235 68.8 36.7183 68.8 36.4V20.8C68.8019 18.7807 69.3484 16.8296 70.3398 15.3031C71.3312 13.7766 72.7013 12.7764 74.2 12.4852V61.6Z" fill="#96A958"/>
<path d="M71 17H69V35H71V17Z" fill="#96A958"/>
<path d="M49 25C47.22 25 45.4799 25.7038 43.9999 27.0224C42.5198 28.3409 41.3663 30.2151 40.6851 32.4078C40.0039 34.6005 39.8257 37.0133 40.1729 39.3411C40.5202 41.6689 41.3774 43.807 42.636 45.4853C43.8947 47.1635 45.4984 48.3064 47.2442 48.7694C48.99 49.2324 50.7996 48.9948 52.4442 48.0865C54.0887 47.1783 55.4943 45.6402 56.4832 43.6668C57.4722 41.6934 58 39.3734 58 37C57.9974 33.8185 57.0483 30.7683 55.3611 28.5186C53.6738 26.2689 51.3861 25.0035 49 25ZM49 46.6C47.576 46.6 46.1839 46.037 44.9999 44.9821C43.8159 43.9272 42.893 42.4279 42.3481 40.6738C41.8031 38.9196 41.6605 36.9893 41.9383 35.1271C42.2162 33.2649 42.9019 31.5544 43.9088 30.2118C44.9158 28.8692 46.1987 27.9549 47.5954 27.5845C48.992 27.214 50.4397 27.4042 51.7553 28.1308C53.0709 28.8574 54.1954 30.0878 54.9866 31.6665C55.7777 33.2452 56.2 35.1013 56.2 37C56.1979 39.5452 55.4386 41.9853 54.0888 43.7851C52.739 45.5848 50.9089 46.5971 49 46.6Z" fill="#96A958"/>
</svg>
